<svg width="2146" height="1001" viewBox="0 0 2146 1001" fill="none" xmlns="http://www.w3.org/2000/svg">
<rect width="2146" height="1001" fill="white"/>
<rect width="2146" height="1001" fill="#080B22"/>
<path d="M323.698 303.052L230.384 489.244H331.11C378.203 489.244 401.023 459.593 406.546 444.767C423.698 410.756 460.878 336.802 472.389 313.081C483.901 289.36 505.965 284.884 515.558 285.61H687.796C719.889 285.61 744.773 263.517 753.203 252.471L788.087 183.14H552.622C537.622 183.14 529.512 196.221 527.331 202.762C524.57 207.994 515.733 225.262 502.477 252.471C485.907 286.483 452.331 285.61 453.203 285.61C454.076 285.61 359.453 285.174 344.628 285.61C332.767 285.959 325.733 297.384 323.698 303.052Z" fill="#0085FB" stroke="black" stroke-width="0.872093"/>
<path d="M191.576 186.196L158 251.167L449.715 251.167C464.715 251.167 472.826 237.504 475.006 230.672L515.558 150.004C441.43 150.149 285.413 150.353 254.366 150.004C223.32 149.655 199.57 173.986 191.576 186.196Z" fill="#0CE1FA" stroke="black" stroke-width="0.872093"/>
<path d="M543.413 488.709V403.811H510.029V387.983H595.503V403.811H562.119V488.709H543.413ZM637.601 429.856H687.677V445.253H637.601V429.856ZM639.04 473.025H695.879V488.709H620.334V387.983H693.864V403.667H639.04V473.025ZM758.75 490.148C750.884 490.148 743.353 489.045 736.158 486.839C728.964 484.536 723.256 481.611 719.035 478.061L725.51 463.528C729.539 466.693 734.528 469.331 740.475 471.442C746.423 473.552 752.514 474.608 758.75 474.608C764.026 474.608 768.295 474.032 771.557 472.881C774.818 471.73 777.217 470.195 778.751 468.276C780.286 466.262 781.054 464.007 781.054 461.513C781.054 458.443 779.951 455.997 777.744 454.174C775.538 452.256 772.66 450.769 769.11 449.714C765.657 448.563 761.772 447.507 757.455 446.548C753.234 445.589 748.965 444.486 744.648 443.238C740.427 441.895 736.542 440.217 732.993 438.202C729.539 436.092 726.709 433.31 724.503 429.856C722.296 426.403 721.193 421.99 721.193 416.618C721.193 411.15 722.632 406.161 725.51 401.653C728.484 397.048 732.945 393.403 738.892 390.717C744.936 387.935 752.562 386.544 761.772 386.544C767.815 386.544 773.811 387.311 779.759 388.846C785.706 390.381 790.887 392.587 795.299 395.465L789.4 409.999C784.891 407.313 780.238 405.346 775.442 404.099C770.645 402.756 766.041 402.084 761.628 402.084C756.448 402.084 752.227 402.708 748.965 403.955C745.799 405.202 743.449 406.833 741.914 408.847C740.475 410.862 739.756 413.164 739.756 415.754C739.756 418.824 740.811 421.318 742.921 423.237C745.128 425.06 747.958 426.499 751.411 427.554C754.961 428.609 758.894 429.664 763.211 430.72C767.528 431.679 771.796 432.782 776.017 434.029C780.334 435.276 784.219 436.907 787.673 438.922C791.222 440.936 794.052 443.67 796.163 447.124C798.369 450.577 799.472 454.942 799.472 460.218C799.472 465.59 797.985 470.579 795.012 475.183C792.134 479.692 787.673 483.337 781.629 486.119C775.586 488.805 767.959 490.148 758.75 490.148ZM847.841 488.709V403.811H814.458V387.983H899.932V403.811H866.548V488.709H847.841ZM924.762 488.709V387.983H943.469V488.709H924.762ZM981.506 488.709V387.983H996.902L1040.93 461.513H1032.88L1076.19 387.983H1091.59L1091.73 488.709H1074.03L1073.89 415.754H1077.63L1040.79 477.198H1032.44L995.032 415.754H999.349V488.709H981.506ZM1176.93 490.148C1169.06 490.148 1161.82 488.853 1155.2 486.263C1148.58 483.673 1142.82 480.076 1137.93 475.471C1133.04 470.77 1129.25 465.302 1126.56 459.067C1123.88 452.736 1122.53 445.829 1122.53 438.346C1122.53 430.863 1123.88 424.004 1126.56 417.769C1129.25 411.438 1133.04 405.97 1137.93 401.365C1142.82 396.664 1148.58 393.019 1155.2 390.429C1161.82 387.839 1169.01 386.544 1176.78 386.544C1184.65 386.544 1191.84 387.839 1198.37 390.429C1204.99 393.019 1210.74 396.664 1215.63 401.365C1220.53 405.97 1224.32 411.438 1227 417.769C1229.69 424.004 1231.03 430.863 1231.03 438.346C1231.03 445.829 1229.69 452.736 1227 459.067C1224.32 465.398 1220.53 470.866 1215.63 475.471C1210.74 480.076 1204.99 483.673 1198.37 486.263C1191.84 488.853 1184.7 490.148 1176.93 490.148ZM1176.78 473.744C1181.87 473.744 1186.57 472.881 1190.88 471.154C1195.2 469.427 1198.94 466.981 1202.11 463.815C1205.27 460.554 1207.72 456.813 1209.45 452.592C1211.27 448.275 1212.18 443.526 1212.18 438.346C1212.18 433.166 1211.27 428.465 1209.45 424.244C1207.72 419.927 1205.27 416.186 1202.11 413.02C1198.94 409.759 1195.2 407.265 1190.88 405.538C1186.57 403.811 1181.87 402.948 1176.78 402.948C1171.7 402.948 1167 403.811 1162.68 405.538C1158.46 407.265 1154.72 409.759 1151.46 413.02C1148.29 416.186 1145.8 419.927 1143.97 424.244C1142.25 428.465 1141.38 433.166 1141.38 438.346C1141.38 443.43 1142.25 448.131 1143.97 452.448C1145.8 456.765 1148.29 460.554 1151.46 463.815C1154.62 466.981 1158.36 469.427 1162.68 471.154C1167 472.881 1171.7 473.744 1176.78 473.744ZM1261.65 488.709V387.983H1277.05L1340.22 465.542H1332.59V387.983H1351.15V488.709H1335.76L1272.59 411.15H1280.21V488.709H1261.65ZM1388.94 488.709V387.983H1407.64V488.709H1388.94ZM1431.43 488.709L1476.76 387.983H1495.18L1540.65 488.709H1521.08L1482.09 397.911H1489.57L1450.72 488.709H1431.43ZM1452.3 465.398L1457.34 450.721H1511.73L1516.76 465.398H1452.3ZM1564.25 488.709V387.983H1582.96V472.881H1635.63V488.709H1564.25Z" fill="white"/>
</svg>
