<svg width="1481" height="376" viewBox="0 0 1481 376" fill="none" xmlns="http://www.w3.org/2000/svg">
<path d="M166.698 154.052L73.3837 340.244H174.11C221.203 340.244 244.023 310.593 249.546 295.768C266.698 261.756 303.878 187.802 315.389 164.082C326.901 140.361 348.965 135.884 358.558 136.611H530.796C562.889 136.611 587.773 114.518 596.203 103.471L631.087 34.1396H395.622C380.622 34.1396 372.512 47.221 370.331 53.7617C367.57 58.9943 358.733 76.2617 345.477 103.471C328.907 137.483 295.331 136.611 296.203 136.611C297.076 136.611 202.453 136.175 187.628 136.611C175.767 136.959 168.733 148.384 166.698 154.052Z" fill="#0085FB" stroke="black" stroke-width="0.872093"/>
<path d="M34.5756 37.1956L1 102.167L292.715 102.167C307.715 102.167 315.826 88.5037 318.006 81.6723L358.558 1.00371C284.43 1.14906 128.413 1.35255 97.3663 1.00371C66.3198 0.654874 42.5698 24.9863 34.5756 37.1956Z" fill="#0CE1FA" stroke="black" stroke-width="0.872093"/>
<path d="M386.413 339.709V254.811H353.029V238.982H438.503V254.811H405.119V339.709H386.413ZM480.601 280.856H530.677V296.253H480.601V280.856ZM482.04 324.025H538.879V339.709H463.334V238.982H536.864V254.667H482.04V324.025ZM601.75 341.148C593.884 341.148 586.353 340.045 579.158 337.839C571.964 335.536 566.256 332.61 562.035 329.061L568.51 314.528C572.539 317.693 577.528 320.331 583.475 322.442C589.423 324.552 595.514 325.607 601.75 325.607C607.026 325.607 611.295 325.032 614.557 323.881C617.818 322.73 620.217 321.195 621.751 319.276C623.286 317.262 624.054 315.007 624.054 312.513C624.054 309.443 622.951 306.997 620.744 305.174C618.538 303.256 615.66 301.769 612.11 300.714C608.657 299.562 604.772 298.507 600.455 297.548C596.234 296.589 591.965 295.485 587.648 294.238C583.427 292.895 579.542 291.216 575.993 289.202C572.539 287.091 569.709 284.31 567.503 280.856C565.296 277.403 564.193 272.99 564.193 267.618C564.193 262.15 565.632 257.161 568.51 252.653C571.484 248.048 575.945 244.403 581.892 241.716C587.936 238.935 595.562 237.544 604.772 237.544C610.815 237.544 616.811 238.311 622.759 239.846C628.706 241.381 633.887 243.587 638.299 246.465L632.4 260.998C627.891 258.312 623.238 256.346 618.442 255.099C613.645 253.756 609.041 253.084 604.628 253.084C599.448 253.084 595.227 253.708 591.965 254.955C588.799 256.202 586.449 257.833 584.914 259.847C583.475 261.862 582.756 264.164 582.756 266.754C582.756 269.824 583.811 272.318 585.921 274.237C588.128 276.06 590.958 277.498 594.411 278.554C597.961 279.609 601.894 280.664 606.211 281.719C610.528 282.679 614.796 283.782 619.017 285.029C623.334 286.276 627.219 287.907 630.673 289.921C634.222 291.936 637.052 294.67 639.163 298.123C641.369 301.577 642.472 305.942 642.472 311.218C642.472 316.59 640.985 321.578 638.012 326.183C635.134 330.692 630.673 334.337 624.629 337.119C618.586 339.805 610.959 341.148 601.75 341.148ZM690.841 339.709V254.811H657.458V238.982H742.932V254.811H709.548V339.709H690.841ZM767.762 339.709V238.982H786.469V339.709H767.762ZM824.506 339.709V238.982H839.902L883.934 312.513H875.876L919.189 238.982H934.586L934.729 339.709H917.03L916.886 266.754H920.628L883.79 328.198H875.445L838.032 266.754H842.349V339.709H824.506ZM1019.93 341.148C1012.06 341.148 1004.82 339.853 998.199 337.263C991.579 334.673 985.824 331.076 980.931 326.471C976.039 321.77 972.249 316.302 969.563 310.067C966.877 303.735 965.534 296.828 965.534 289.346C965.534 281.863 966.877 275.004 969.563 268.769C972.249 262.437 976.039 256.969 980.931 252.365C985.824 247.664 991.579 244.019 998.199 241.429C1004.82 238.839 1012.01 237.544 1019.78 237.544C1027.65 237.544 1034.84 238.839 1041.37 241.429C1047.99 244.019 1053.74 247.664 1058.63 252.365C1063.53 256.969 1067.32 262.437 1070 268.769C1072.69 275.004 1074.03 281.863 1074.03 289.346C1074.03 296.828 1072.69 303.735 1070 310.067C1067.32 316.398 1063.53 321.866 1058.63 326.471C1053.74 331.076 1047.99 334.673 1041.37 337.263C1034.84 339.853 1027.7 341.148 1019.93 341.148ZM1019.78 324.744C1024.87 324.744 1029.57 323.881 1033.88 322.154C1038.2 320.427 1041.94 317.981 1045.11 314.815C1048.27 311.554 1050.72 307.812 1052.45 303.591C1054.27 299.275 1055.18 294.526 1055.18 289.346C1055.18 284.166 1054.27 279.465 1052.45 275.244C1050.72 270.927 1048.27 267.186 1045.11 264.02C1041.94 260.759 1038.2 258.264 1033.88 256.538C1029.57 254.811 1024.87 253.948 1019.78 253.948C1014.7 253.948 1010 254.811 1005.68 256.538C1001.46 258.264 997.719 260.759 994.457 264.02C991.292 267.186 988.797 270.927 986.975 275.244C985.248 279.465 984.385 284.166 984.385 289.346C984.385 294.43 985.248 299.131 986.975 303.448C988.797 307.764 991.292 311.554 994.457 314.815C997.623 317.981 1001.36 320.427 1005.68 322.154C1010 323.881 1014.7 324.744 1019.78 324.744ZM1104.65 339.709V238.982H1120.05L1183.22 316.542H1175.59V238.982H1194.15V339.709H1178.76L1115.59 262.15H1123.21V339.709H1104.65ZM1231.94 339.709V238.982H1250.64V339.709H1231.94ZM1274.43 339.709L1319.76 238.982H1338.18L1383.65 339.709H1364.08L1325.09 248.911H1332.57L1293.72 339.709H1274.43ZM1295.3 316.398L1300.34 301.721H1354.73L1359.76 316.398H1295.3ZM1407.25 339.709V238.982H1425.96V323.881H1478.63V339.709H1407.25Z" fill="#151B36"/>
</svg>
