<svg width="1089" height="287" viewBox="0 0 1089 287" fill="none" xmlns="http://www.w3.org/2000/svg">
<mask id="mask0_145_167" style="mask-type:alpha" maskUnits="userSpaceOnUse" x="0" y="0" width="1089" height="287">
<rect width="1088.5" height="287" rx="50" fill="#080B22"/>
</mask>
<g mask="url(#mask0_145_167)">
<path d="M133.304 127.534L67.2411 249.04H138.553C171.893 249.04 188.049 229.69 191.959 220.015C204.101 197.82 230.424 149.559 238.574 134.079C246.724 118.599 262.344 115.677 269.136 116.151H391.075C413.796 116.151 431.413 101.734 437.382 94.5249L462.078 49.2801H295.376C284.756 49.2801 279.015 57.8168 277.471 62.0852C275.516 65.4999 269.259 76.7684 259.875 94.5249C248.144 116.72 224.373 116.151 224.991 116.151C225.608 116.151 158.619 115.867 148.122 116.151C139.726 116.379 134.745 123.834 133.304 127.534Z" fill="#0085FB"/>
<path d="M39.7661 51.2744L15.9956 93.6736L222.521 93.6736C233.141 93.6736 238.883 84.7575 240.426 80.2994L269.136 27.656C216.656 27.7509 106.2 27.8837 84.22 27.656C62.24 27.4284 45.4257 43.3068 39.7661 51.2744Z" fill="#0CE1FA"/>
<path d="M288.856 248.691V193.288H265.221V182.958H325.734V193.288H302.1V248.691H288.856Z" fill="white"/>
<path d="M355.539 210.284H390.991V220.332H355.539V210.284ZM356.557 238.456H396.797V248.691H343.314V182.958H395.371V193.194H356.557V238.456Z" fill="white"/>
<path d="M441.308 249.63C435.739 249.63 430.408 248.91 425.314 247.47C420.22 245.968 416.179 244.059 413.191 241.742L417.775 232.258C420.628 234.324 424.16 236.045 428.37 237.423C432.581 238.8 436.894 239.489 441.308 239.489C445.044 239.489 448.066 239.113 450.375 238.362C452.684 237.61 454.382 236.609 455.469 235.357C456.555 234.042 457.099 232.571 457.099 230.943C457.099 228.94 456.318 227.344 454.756 226.154C453.193 224.902 451.156 223.932 448.643 223.243C446.198 222.492 443.448 221.803 440.391 221.177C437.403 220.551 434.381 219.831 431.325 219.017C428.336 218.141 425.586 217.045 423.073 215.731C420.628 214.353 418.624 212.538 417.062 210.284C415.5 208.031 414.719 205.151 414.719 201.645C414.719 198.077 415.738 194.821 417.775 191.879C419.881 188.874 423.039 186.495 427.25 184.742C431.528 182.927 436.928 182.019 443.448 182.019C447.726 182.019 451.971 182.52 456.182 183.522C460.393 184.523 464.06 185.963 467.184 187.841L463.007 197.325C459.815 195.573 456.521 194.289 453.126 193.475C449.73 192.599 446.47 192.161 443.346 192.161C439.678 192.161 436.69 192.568 434.381 193.381C432.14 194.195 430.476 195.26 429.389 196.574C428.37 197.889 427.861 199.391 427.861 201.082C427.861 203.085 428.608 204.713 430.102 205.965C431.664 207.154 433.668 208.093 436.113 208.782C438.626 209.47 441.41 210.159 444.466 210.848C447.523 211.474 450.545 212.194 453.533 213.008C456.589 213.821 459.34 214.886 461.785 216.2C464.298 217.515 466.301 219.299 467.795 221.553C469.357 223.807 470.138 226.655 470.138 230.098C470.138 233.604 469.086 236.859 466.98 239.864C464.943 242.806 461.785 245.185 457.506 247.001C453.227 248.754 447.828 249.63 441.308 249.63Z" fill="white"/>
<path d="M504.382 248.691V193.288H480.748V182.958H541.26V193.288H517.626V248.691H504.382Z" fill="white"/>
<path d="M558.84 248.691V182.958H572.084V248.691H558.84Z" fill="white"/>
<path d="M599.012 248.691V182.958H609.913L641.086 230.943H635.381L666.045 182.958H676.946L677.048 248.691H664.517L664.415 201.082H667.064L640.984 241.179H635.076L608.589 201.082H611.645V248.691H599.012Z" fill="white"/>
<path d="M737.365 249.63C731.796 249.63 726.668 248.785 721.982 247.095C717.296 245.404 713.221 243.057 709.757 240.052C706.293 236.984 703.611 233.416 701.709 229.347C699.807 225.215 698.856 220.708 698.856 215.825C698.856 210.942 699.807 206.465 701.709 202.396C703.611 198.265 706.293 194.696 709.757 191.691C713.221 188.624 717.296 186.245 721.982 184.554C726.668 182.864 731.762 182.019 737.263 182.019C742.832 182.019 747.926 182.864 752.544 184.554C757.23 186.245 761.305 188.624 764.769 191.691C768.232 194.696 770.915 198.265 772.817 202.396C774.718 206.465 775.669 210.942 775.669 215.825C775.669 220.708 774.718 225.215 772.817 229.347C770.915 233.479 768.232 237.047 764.769 240.052C761.305 243.057 757.23 245.404 752.544 247.095C747.926 248.785 742.866 249.63 737.365 249.63ZM737.263 238.925C740.862 238.925 744.19 238.362 747.246 237.235C750.303 236.108 752.951 234.512 755.192 232.446C757.434 230.317 759.166 227.876 760.388 225.121C761.678 222.304 762.324 219.205 762.324 215.825C762.324 212.444 761.678 209.377 760.388 206.622C759.166 203.805 757.434 201.363 755.192 199.297C752.951 197.169 750.303 195.541 747.246 194.414C744.19 193.288 740.862 192.724 737.263 192.724C733.663 192.724 730.335 193.288 727.279 194.414C724.291 195.541 721.642 197.169 719.333 199.297C717.092 201.363 715.326 203.805 714.036 206.622C712.813 209.377 712.202 212.444 712.202 215.825C712.202 219.143 712.813 222.21 714.036 225.027C715.326 227.844 717.092 230.317 719.333 232.446C721.574 234.512 724.223 236.108 727.279 237.235C730.335 238.362 733.663 238.925 737.263 238.925Z" fill="white"/>
<path d="M797.347 248.691V182.958H808.248L852.97 233.573H847.571V182.958H860.713V248.691H849.812L805.09 198.077H810.489V248.691H797.347Z" fill="white"/>
<path d="M887.462 248.691V182.958H900.705V248.691H887.462Z" fill="white"/>
<path d="M917.549 248.691L949.639 182.958H962.679L994.871 248.691H981.016L953.408 189.438H958.706L931.2 248.691H917.549ZM932.32 233.479L935.886 223.9H974.394L977.96 233.479H932.32Z" fill="white"/>
<path d="M1011.58 248.691V182.958H1024.82V238.362H1062.11V248.691H1011.58Z" fill="white"/>
</g>
</svg>
